<svg version="1.1" id="Layer_1" xmlns="http://www.w3.org/2000/svg" xmlns:xlink="http://www.w3.org/1999/xlink" x="0px" y="0px"
	 width="100%" viewBox="0 0 1024 1024" enable-background="new 0 0 1024 1024" xml:space="preserve">
<path fill="#F9F8F7" opacity="1.000000" stroke="none" 
	d="
M705.000000,1025.000000 
	C470.000000,1025.000000 235.500000,1025.000000 1.000000,1025.000000 
	C1.000000,683.666687 1.000000,342.333344 1.000000,1.000000 
	C342.333344,1.000000 683.666687,1.000000 1025.000000,1.000000 
	C1025.000000,342.333344 1025.000000,683.666687 1025.000000,1025.000000 
	C918.500000,1025.000000 812.000000,1025.000000 705.000000,1025.000000 
M408.136749,226.347961 
	C407.748444,225.876602 407.360107,225.405258 406.649231,224.354721 
	C397.361267,214.568817 385.865692,212.992767 373.628418,216.419815 
	C361.226807,219.892868 354.121368,228.906967 352.089813,241.356476 
	C350.922028,248.512619 351.182098,255.913712 350.964996,263.209473 
	C350.772034,269.693756 350.862030,269.492432 344.175385,269.844635 
	C333.746582,270.393921 323.210144,270.484009 312.940552,272.140472 
	C291.865845,275.539795 274.135040,285.312103 260.292816,302.770050 
	C259.814728,303.479858 259.336609,304.189667 258.910004,305.003632 
	C258.910004,305.003632 258.897369,304.888123 258.303253,305.204041 
	C245.904221,321.014343 240.259537,339.271667 240.228455,359.054901 
	C240.069122,460.459290 240.132996,561.864197 240.289246,663.268677 
	C240.308762,675.943054 242.227264,688.425720 248.208374,700.658691 
	C254.621277,714.447449 263.457214,726.402100 275.424164,735.856018 
	C291.146515,748.276550 309.112335,754.849487 330.037140,755.930237 
	C422.492249,755.958923 514.947327,756.005493 607.402466,756.005676 
	C636.885681,756.005737 666.368835,755.882568 696.704834,755.936584 
	C698.510254,755.681519 700.310974,755.386414 702.121704,755.177246 
	C727.678223,752.224670 749.091431,741.502930 765.268372,721.200562 
	C775.161316,708.784790 781.872498,694.881226 784.156311,678.195374 
	C784.633118,671.901733 785.515930,665.608826 785.526001,659.314392 
	C785.685608,559.572266 785.755005,459.829926 785.739380,360.087616 
	C785.738647,355.328522 784.759766,350.569580 784.219849,344.960632 
	C784.065063,343.304810 784.056641,341.619873 783.733826,339.997467 
	C776.429749,303.287537 744.149292,274.268524 706.687378,270.950043 
	C698.085510,270.188019 689.420898,270.128571 680.784363,269.765839 
	C677.076782,269.610138 674.754395,268.755341 674.896790,264.001831 
	C675.114929,256.720367 674.841919,249.354706 673.960510,242.124344 
	C672.152588,227.292877 659.120422,215.534760 644.534180,214.950104 
	C626.580566,214.230469 614.987244,222.605865 610.938416,239.802902 
	C610.665283,241.533936 610.392151,243.264984 609.934448,245.503036 
	C609.936462,246.339462 609.938538,247.175903 609.803162,248.849304 
	C609.544739,255.568542 609.286255,262.287781 609.012085,268.994019 
	C609.012085,268.994019 609.003052,269.010620 608.166626,269.222656 
	C601.451172,269.508423 594.735779,269.794189 587.164124,269.946472 
	C585.434937,269.995148 583.705811,270.043793 581.046570,270.003571 
	C528.704773,270.028564 476.362915,270.053558 423.220123,269.940918 
	C422.139679,269.973480 421.059204,270.006012 419.505554,269.775665 
	C418.984589,269.633575 418.463654,269.491486 417.915009,269.138306 
	C417.915009,269.138306 417.720398,269.051941 417.656830,268.214691 
	C417.377563,262.593109 417.173309,256.966553 416.801025,251.351135 
	C416.271851,243.369354 415.188110,235.526108 410.009766,228.991928 
	C410.009766,228.991928 410.077271,228.965988 409.900696,228.373703 
	C409.302887,227.870972 408.705078,227.368240 408.040344,226.908310 
	C408.040344,226.908310 408.088623,226.971420 408.136749,226.347961 
z"/>
<path fill="#908DF3" opacity="1.000000" stroke="none" 
	d="
M329.121368,755.843811 
	C309.112335,754.849487 291.146515,748.276550 275.424164,735.856018 
	C263.457214,726.402100 254.621277,714.447449 248.389954,700.087769 
	C248.668930,699.040222 248.991699,698.463745 248.831116,698.101501 
	C243.293213,685.607483 242.619034,672.507935 242.836227,659.022644 
	C243.142502,640.009338 242.273300,620.978760 242.028809,601.954041 
	C241.892944,591.382324 242.005508,580.807434 242.005432,570.233948 
	C242.004959,512.627319 242.004227,455.020721 242.003784,397.414124 
	C242.003723,389.563721 241.768234,381.703705 242.085480,373.866119 
	C242.311401,368.284729 242.439438,362.455017 244.160645,357.248291 
	C245.832520,352.190887 249.821686,347.887909 245.177902,342.447021 
	C244.510254,341.664764 244.791412,339.811493 245.052185,338.539703 
	C246.990784,329.085297 249.761536,320.017731 256.042725,312.300659 
	C257.631622,310.348541 257.979340,307.386230 258.897369,304.888123 
	C258.897369,304.888123 258.910004,305.003632 259.261261,304.925659 
	C260.030334,304.044403 260.448151,303.241089 260.865967,302.437744 
	C274.135040,285.312103 291.865845,275.539795 312.940552,272.140472 
	C323.210144,270.484009 333.746582,270.393921 344.175385,269.844635 
	C350.862030,269.492432 350.772034,269.693756 350.964996,263.209473 
	C351.182098,255.913712 350.922028,248.512619 352.089813,241.356476 
	C354.121368,228.906967 361.226807,219.892868 373.628418,216.419815 
	C385.865692,212.992767 397.361267,214.568817 406.845337,224.955383 
	C407.390472,226.027847 407.739532,226.499634 408.088623,226.971420 
	C408.088623,226.971420 408.040344,226.908310 408.077728,227.226715 
	C408.769165,228.018738 409.423218,228.492371 410.077271,228.965988 
	C410.077271,228.965988 410.009766,228.991928 410.017151,229.349579 
	C411.233276,233.274445 413.049805,236.762589 413.526398,240.425079 
	C414.576660,248.496445 414.863770,256.664551 415.680634,264.771210 
	C415.829834,266.251587 417.014008,267.627686 417.720398,269.051941 
	C417.720398,269.051941 417.915009,269.138306 418.013123,269.491455 
	C418.733765,269.909271 419.356262,269.973907 419.978760,270.038574 
	C421.059204,270.006012 422.139679,269.973480 423.717102,270.396210 
	C425.398041,271.230377 426.581604,271.939423 427.765961,271.940704 
	C477.849609,271.994415 527.933350,271.999420 578.016907,271.904144 
	C579.337952,271.901642 580.656738,270.722748 581.976624,270.092468 
	C583.705811,270.043793 585.434937,269.995148 587.682739,270.390320 
	C595.034607,270.541504 601.868164,270.253418 608.699341,269.917419 
	C608.815125,269.911713 608.902466,269.325775 609.003052,269.010620 
	C609.003052,269.010620 609.012085,268.994019 609.409180,268.894897 
	C610.203369,267.306488 610.904480,265.824982 610.942810,264.326508 
	C611.082031,258.887421 610.999146,253.442642 611.003784,247.625000 
	C611.005737,246.500015 611.003906,245.750000 611.041260,244.641190 
	C611.099731,242.546997 611.119019,240.811630 611.138306,239.076248 
	C614.987244,222.605865 626.580566,214.230469 644.534180,214.950104 
	C659.120422,215.534760 672.152588,227.292877 673.960510,242.124344 
	C674.841919,249.354706 675.114929,256.720367 674.896790,264.001831 
	C674.754395,268.755341 677.076782,269.610138 680.784363,269.765839 
	C689.420898,270.128571 698.085510,270.188019 706.687378,270.950043 
	C744.149292,274.268524 776.429749,303.287537 783.733826,339.997467 
	C784.056641,341.619873 784.065063,343.304810 783.936829,345.639893 
	C783.764709,349.431763 784.018372,352.547028 783.961670,355.656616 
	C783.720886,368.867493 783.190918,382.076172 783.154053,395.286713 
	C783.126587,405.143097 783.945007,415.000854 783.954895,424.858429 
	C784.027649,497.505219 783.998657,570.152100 783.965576,642.798950 
	C783.964233,645.751892 783.499390,648.702271 783.428894,651.658081 
	C783.253296,659.023621 783.122314,666.391479 783.109619,673.758667 
	C783.106628,675.492920 783.641663,677.228149 783.929138,678.962891 
	C781.872498,694.881226 775.161316,708.784790 765.268372,721.200562 
	C749.091431,741.502930 727.678223,752.224670 702.121704,755.177246 
	C700.310974,755.386414 698.510254,755.681519 695.970947,755.619934 
	C694.083130,755.206238 692.929077,755.024231 691.775085,755.024170 
	C572.479858,755.014526 453.184662,755.015442 333.889465,755.056030 
	C332.300018,755.056580 330.710724,755.569885 329.121368,755.843811 
M309.015778,557.953247 
	C309.020630,591.576904 309.000610,625.200684 309.103058,658.824036 
	C309.108215,660.520386 310.171143,662.213501 310.954315,664.738220 
	C312.070862,678.406067 316.093689,683.246338 329.434692,687.203857 
	C331.373749,687.459534 333.312744,687.938477 335.251862,687.939026 
	C453.478607,687.972290 571.705383,687.971130 689.932129,687.914734 
	C691.622559,687.913940 693.312683,687.173523 695.549316,686.293579 
	C708.409729,683.779663 713.100037,678.963684 714.971863,666.539673 
	C715.432312,663.483521 716.187378,660.471680 717.380188,656.717712 
	C717.585144,655.258850 717.967773,653.800110 717.968811,652.341125 
	C717.989624,622.218811 717.967041,592.096558 717.969116,561.040344 
	C717.976562,496.095215 718.013367,431.150055 717.889160,366.205170 
	C717.883972,363.474915 716.380493,360.747528 715.134888,357.526215 
	C711.798279,346.506775 703.264526,343.307495 692.743103,342.033966 
	C691.541931,341.689270 690.341064,341.044098 689.139587,341.043091 
	C633.783691,340.995483 578.427734,340.991516 523.071899,341.080933 
	C521.728455,341.083099 520.386841,342.198029 518.234741,342.942719 
	C517.142029,342.895020 516.049255,342.847321 514.750854,342.048126 
	C511.149078,341.701447 507.550415,341.168427 503.943848,341.107513 
	C502.653534,341.085724 501.343994,342.205078 499.277039,342.942841 
	C498.503265,342.893524 497.729462,342.844208 496.780945,342.086975 
	C494.347961,340.538177 492.006927,339.865082 489.272400,342.918671 
	C485.699493,342.300262 482.126587,341.681854 477.535522,341.042023 
	C429.947632,341.028107 382.359375,340.935455 334.772400,341.135040 
	C330.512207,341.152893 326.260010,343.064789 322.016144,344.023499 
	C322.016144,344.023499 322.087524,344.045013 321.398956,344.076660 
	C320.853027,344.462524 320.307098,344.848389 319.380554,345.738403 
	C316.562683,349.170349 313.744812,352.602295 310.282959,356.395386 
	C309.517822,359.201141 308.099854,362.003998 308.087189,364.813141 
	C307.938690,397.849884 307.979919,430.887634 308.082672,463.924774 
	C308.086853,465.269348 309.194244,466.610535 309.923401,468.646118 
	C309.879913,469.112640 309.836456,469.579163 309.042664,470.255310 
	C308.700684,471.120270 308.063324,471.984222 308.060364,472.850311 
	C308.000916,490.068787 307.979187,507.287781 308.093567,524.505676 
	C308.101257,525.664062 309.249542,526.814880 309.999481,528.900940 
	C309.966003,534.620483 309.932526,540.340027 309.350189,546.647095 
	C309.240448,550.104126 309.130737,553.561218 309.015778,557.953247 
z"/>
<path fill="#8B88F4" opacity="1.000000" stroke="none" 
	d="
M258.600311,305.046082 
	C257.979340,307.386230 257.631622,310.348541 256.042725,312.300659 
	C249.761536,320.017731 246.990784,329.085297 245.052185,338.539703 
	C244.791412,339.811493 244.510254,341.664764 245.177902,342.447021 
	C249.821686,347.887909 245.832520,352.190887 244.160645,357.248291 
	C242.439438,362.455017 242.311401,368.284729 242.085480,373.866119 
	C241.768234,381.703705 242.003723,389.563721 242.003784,397.414124 
	C242.004227,455.020721 242.004959,512.627319 242.005432,570.233948 
	C242.005508,580.807434 241.892944,591.382324 242.028809,601.954041 
	C242.273300,620.978760 243.142502,640.009338 242.836227,659.022644 
	C242.619034,672.507935 243.293213,685.607483 248.831116,698.101501 
	C248.991699,698.463745 248.668930,699.040222 248.313019,699.745667 
	C242.227264,688.425720 240.308762,675.943054 240.289246,663.268677 
	C240.132996,561.864197 240.069122,460.459290 240.228455,359.054901 
	C240.259537,339.271667 245.904221,321.014343 258.600311,305.046082 
z"/>
<path fill="#7D7AF5" opacity="1.000000" stroke="none" 
	d="
M784.042725,678.579102 
	C783.641663,677.228149 783.106628,675.492920 783.109619,673.758667 
	C783.122314,666.391479 783.253296,659.023621 783.428894,651.658081 
	C783.499390,648.702271 783.964233,645.751892 783.965576,642.798950 
	C783.998657,570.152100 784.027649,497.505219 783.954895,424.858429 
	C783.945007,415.000854 783.126587,405.143097 783.154053,395.286713 
	C783.190918,382.076172 783.720886,368.867493 783.961670,355.656616 
	C784.018372,352.547028 783.764709,349.431763 783.945068,346.064819 
	C784.759766,350.569580 785.738647,355.328522 785.739380,360.087616 
	C785.755005,459.829926 785.685608,559.572266 785.526001,659.314392 
	C785.515930,665.608826 784.633118,671.901733 784.042725,678.579102 
z"/>
<path fill="#6157F6" opacity="1.000000" stroke="none" 
	d="
M329.579254,755.887024 
	C330.710724,755.569885 332.300018,755.056580 333.889465,755.056030 
	C453.184662,755.015442 572.479858,755.014526 691.775085,755.024170 
	C692.929077,755.024231 694.083130,755.206238 695.544556,755.559509 
	C666.368835,755.882568 636.885681,756.005737 607.402466,756.005676 
	C514.947327,756.005493 422.492249,755.958923 329.579254,755.887024 
z"/>
<path fill="#7D7AF5" opacity="1.000000" stroke="none" 
	d="
M581.511597,270.048035 
	C580.656738,270.722748 579.337952,271.901642 578.016907,271.904144 
	C527.933350,271.999420 477.849609,271.994415 427.765961,271.940704 
	C426.581604,271.939423 425.398041,271.230377 424.117615,270.465027 
	C476.362915,270.053558 528.704773,270.028564 581.511597,270.048035 
z"/>
<path fill="#7D7AF5" opacity="1.000000" stroke="none" 
	d="
M417.688599,268.633301 
	C417.014008,267.627686 415.829834,266.251587 415.680634,264.771210 
	C414.863770,256.664551 414.576660,248.496445 413.526398,240.425079 
	C413.049805,236.762589 411.233276,233.274445 410.031067,229.316193 
	C415.188110,235.526108 416.271851,243.369354 416.801025,251.351135 
	C417.173309,256.966553 417.377563,262.593109 417.688599,268.633301 
z"/>
<path fill="#7975F7" opacity="1.000000" stroke="none" 
	d="
M611.000000,248.000000 
	C610.999146,253.442642 611.082031,258.887421 610.942810,264.326508 
	C610.904480,265.824982 610.203369,267.306488 609.417053,268.901398 
	C609.286255,262.287781 609.544739,255.568542 610.136719,248.426331 
	C610.646912,248.002243 610.823486,248.001114 611.000000,248.000000 
z"/>
<path fill="#7D7AF5" opacity="1.000000" stroke="none" 
	d="
M608.584839,269.116638 
	C608.902466,269.325775 608.815125,269.911713 608.699341,269.917419 
	C601.868164,270.253418 595.034607,270.541504 588.110840,270.457062 
	C594.735779,269.794189 601.451172,269.508423 608.584839,269.116638 
z"/>
<path fill="#7975F7" opacity="1.000000" stroke="none" 
	d="
M611.038330,239.439575 
	C611.119019,240.811630 611.099731,242.546997 610.820496,244.641205 
	C610.560547,245.000046 610.119019,244.996017 610.119019,244.996017 
	C610.392151,243.264984 610.665283,241.533936 611.038330,239.439575 
z"/>
<path fill="#7D7AF5" opacity="1.000000" stroke="none" 
	d="
M610.026733,245.249527 
	C610.119019,244.996017 610.560547,245.000046 610.781311,245.000031 
	C611.003906,245.750000 611.005737,246.500015 611.003784,247.625000 
	C610.823486,248.001114 610.646912,248.002243 610.205444,248.007843 
	C609.938538,247.175903 609.936462,246.339462 610.026733,245.249527 
z"/>
<path fill="#7D7AF5" opacity="1.000000" stroke="none" 
	d="
M419.742157,269.907104 
	C419.356262,269.973907 418.733765,269.909271 418.026978,269.596985 
	C418.463654,269.491486 418.984589,269.633575 419.742157,269.907104 
z"/>
<path fill="#8B88F4" opacity="1.000000" stroke="none" 
	d="
M260.579407,302.603882 
	C260.448151,303.241089 260.030334,304.044403 259.235504,304.873596 
	C259.336609,304.189667 259.814728,303.479858 260.579407,302.603882 
z"/>
<path fill="#7D7AF5" opacity="1.000000" stroke="none" 
	d="
M409.988983,228.669846 
	C409.423218,228.492371 408.769165,228.018738 408.111206,227.205307 
	C408.705078,227.368240 409.302887,227.870972 409.988983,228.669846 
z"/>
<path fill="#7D7AF5" opacity="1.000000" stroke="none" 
	d="
M408.112671,226.659698 
	C407.739532,226.499634 407.390472,226.027847 407.006592,225.244995 
	C407.360107,225.405258 407.748444,225.876602 408.112671,226.659698 
z"/>
<path fill="#F9F8F7" opacity="1.000000" stroke="none" 
	d="
M309.792999,470.045685 
	C309.836456,469.579163 309.879913,469.112640 309.909119,467.837494 
	C309.702454,442.433258 309.306885,417.836823 309.402863,393.242340 
	C309.451263,380.837830 310.390533,368.436859 310.926971,356.034271 
	C313.744812,352.602295 316.562683,349.170349 319.920227,345.443848 
	C321.002441,344.781189 321.544983,344.413116 322.087524,344.045044 
	C322.087524,344.045013 322.016144,344.023499 322.430237,344.043915 
	C328.637421,343.634460 334.429321,342.851074 340.223816,342.830902 
	C384.385864,342.677185 428.548492,342.692200 472.710602,342.555634 
	C474.659821,342.549561 476.606049,341.582703 478.553680,341.063416 
	C482.126587,341.681854 485.699493,342.300262 490.087891,342.907806 
	C492.920807,342.862946 494.938232,342.828918 496.955688,342.794891 
	C497.729462,342.844208 498.503265,342.893524 500.028748,342.923004 
	C505.505829,342.868652 510.231201,342.834137 514.956543,342.799622 
	C516.049255,342.847321 517.142029,342.895020 519.102356,342.918457 
	C577.630798,342.857483 635.291565,342.820770 692.952393,342.784088 
	C703.264526,343.307495 711.798279,346.506775 715.473511,358.193329 
	C716.214478,363.981506 716.918701,369.099945 716.963135,374.224121 
	C717.103149,390.368652 717.035278,406.515503 716.975586,422.661163 
	C716.853699,455.615448 716.640564,488.569489 716.556458,521.523865 
	C716.522095,534.988220 716.725098,548.453308 716.639038,562.363159 
	C716.377380,577.425232 716.184753,592.042603 716.245789,606.658936 
	C716.316406,623.586304 716.610107,640.512695 716.807007,657.439514 
	C716.187378,660.471680 715.432312,663.483521 714.971863,666.539673 
	C713.100037,678.963684 708.409729,683.779663 694.807129,686.566284 
	C691.902222,686.900391 689.739380,687.015442 687.576599,687.015503 
	C570.866943,687.020508 454.157349,687.019836 337.447723,686.988464 
	C334.629852,686.987671 331.812042,686.633240 328.994202,686.443787 
	C316.093689,683.246338 312.070862,678.406067 310.880371,663.884583 
	C310.578644,658.061890 310.176666,653.093628 310.151550,648.123596 
	C309.998230,617.757690 309.930389,587.391418 309.906006,556.570984 
	C309.951630,552.764343 309.925323,549.411926 309.899048,546.059570 
	C309.932526,540.340027 309.966003,534.620483 309.977539,527.970581 
	C309.901428,508.042084 309.847229,489.043884 309.792999,470.045685 
M625.578857,493.973694 
	C625.748657,493.659698 625.918457,493.345703 626.016602,493.016663 
	C626.016602,493.016663 626.032532,493.088043 626.570312,492.960144 
	C626.743225,492.650513 626.916138,492.340851 627.019531,492.011993 
	C627.019531,492.011993 627.024719,492.083923 627.585938,491.938171 
	C627.834229,491.644928 628.082520,491.351715 628.889343,490.741364 
	C637.234497,482.365021 645.921387,474.293396 653.778687,465.482025 
	C657.632263,461.160614 661.418823,455.806793 662.685669,450.330322 
	C666.803345,432.530548 650.725098,409.701080 632.568359,406.217285 
	C631.754883,406.061188 630.913635,406.051544 630.085815,405.968628 
	C620.906555,405.049072 613.676575,408.726471 607.348938,415.123627 
	C569.050537,453.843048 530.686768,492.497742 492.321075,531.150513 
	C484.607910,538.921326 479.319580,539.020264 471.948608,531.622803 
	C457.020874,516.641541 441.611053,502.096527 427.387787,486.472443 
	C417.275970,475.364655 396.426178,475.128265 387.024628,485.535980 
	C384.241486,488.616913 380.972687,491.253235 378.039703,494.205780 
	C367.468689,504.847382 367.142700,523.145386 377.412903,534.032166 
	C384.724548,541.782715 392.054016,549.528442 399.663391,556.982422 
	C405.708221,562.903748 412.189240,568.379761 418.858368,574.562988 
	C419.231873,574.734924 419.605377,574.906860 419.985901,575.009155 
	C419.985901,575.009155 419.918335,575.027771 420.038849,575.597107 
	C420.340088,575.836792 420.641327,576.076477 421.271576,576.868408 
	C431.708618,587.264526 442.145691,597.660706 452.959564,608.597229 
	C453.289764,608.885620 453.619965,609.173950 454.244324,610.020081 
	C457.193359,612.897766 460.062592,615.863037 463.105988,618.637207 
	C473.372742,627.995667 491.840240,627.679688 502.510529,617.817444 
	C502.712708,617.553955 502.914886,617.290466 503.705902,616.748718 
	C505.818146,614.587891 507.930389,612.427124 510.544159,609.954956 
	C510.790466,609.650574 511.036774,609.346252 511.657410,608.924561 
	C511.894012,608.769470 512.023376,608.550842 512.522339,607.964172 
	C512.711121,607.648193 512.899902,607.332214 513.014465,607.018372 
	C513.014465,607.018372 513.022888,607.092102 513.540039,606.924011 
	C513.723877,606.623230 513.907654,606.322510 514.017578,606.014771 
	C514.017578,606.014771 514.017090,606.088989 514.561829,605.913330 
	C514.807861,605.624817 515.053833,605.336304 515.811340,604.810059 
	C516.558472,603.977478 517.305603,603.144897 518.529785,601.990479 
	C518.715515,601.665771 518.901245,601.341003 519.013672,601.017944 
	C519.013672,601.017944 519.024048,601.090576 519.543030,600.927979 
	C519.726013,600.625977 519.908997,600.324036 520.018005,600.018250 
	C520.018005,600.018250 520.023132,600.092102 520.538574,599.921753 
	C520.723022,599.621765 520.907532,599.321716 521.017883,599.018250 
	C521.017883,599.018250 521.022888,599.092224 521.537292,598.920349 
	C521.722290,598.620667 521.907288,598.321045 522.017273,598.014587 
	C522.017273,598.014587 522.016785,598.089905 522.558960,597.909424 
	C522.804565,597.622009 523.050110,597.334595 523.765808,596.849609 
	C524.194153,596.333557 524.622498,595.817505 525.529236,594.986389 
	C525.715942,594.662720 525.902649,594.339050 526.013977,594.017944 
	C526.013977,594.017944 526.022827,594.092834 526.538513,593.921204 
	C526.722717,593.621521 526.906860,593.321838 527.017395,593.017883 
	C527.017395,593.017883 527.023315,593.091431 527.541992,592.926147 
	C527.725220,592.624756 527.908386,592.323303 528.017761,592.017822 
	C528.017761,592.017822 528.022949,592.091553 528.539307,591.923279 
	C528.723633,591.622498 528.907959,591.321716 529.017944,591.018066 
	C529.017944,591.018066 529.022034,591.092285 529.535034,590.917542 
	C529.720825,590.618591 529.906616,590.319580 530.017639,590.017761 
	C530.017639,590.017761 530.021667,590.092468 530.532898,589.915039 
	C530.719788,589.616699 530.906677,589.318359 531.016846,589.013733 
	C531.016846,589.013733 531.016296,589.090698 531.542297,588.897339 
	C531.778137,588.611206 532.014038,588.325073 532.817383,587.755981 
	C534.557129,585.913635 536.296814,584.071228 538.523193,581.926514 
	C538.758179,581.628784 538.993164,581.331055 539.802734,580.746643 
	C541.883057,578.585938 543.963440,576.425232 546.533203,573.950562 
	C546.768066,573.645996 547.002991,573.341370 547.719666,572.828125 
	C548.159790,572.295898 548.599976,571.763733 549.518555,570.946045 
	C549.708923,570.636230 549.899292,570.326416 550.014038,570.015198 
	C550.014038,570.015198 550.018311,570.090820 550.546570,569.905396 
	C550.776917,569.616577 551.007324,569.327820 551.813354,568.739197 
	C563.547485,556.850342 575.281616,544.961487 587.551270,532.724609 
	C587.729126,532.159180 587.906982,531.593750 588.014587,531.009888 
	C588.014587,531.009888 588.039551,531.078125 588.672913,531.121765 
	C588.807800,530.760864 588.942688,530.399963 589.015320,530.102173 
	C589.015320,530.102173 589.080811,530.161804 589.580261,530.312378 
	C589.723267,530.213501 589.866333,530.114624 590.595642,529.702881 
	C595.908813,524.417969 601.284790,519.194336 606.518494,513.831909 
	C612.433533,507.771362 618.220825,501.586121 624.556824,495.088165 
	C624.730957,494.733246 624.905090,494.378326 625.008362,494.018951 
	C625.008362,494.018951 625.034424,494.084991 625.578857,493.973694 
z"/>
<path fill="#5C52F6" opacity="1.000000" stroke="none" 
	d="
M329.214447,686.823853 
	C331.812042,686.633240 334.629852,686.987671 337.447723,686.988464 
	C454.157349,687.019836 570.866943,687.020508 687.576599,687.015503 
	C689.739380,687.015442 691.902222,686.900391 694.533936,686.808594 
	C693.312683,687.173523 691.622559,687.913940 689.932129,687.914734 
	C571.705383,687.971130 453.478607,687.972290 335.251862,687.939026 
	C333.312744,687.938477 331.373749,687.459534 329.214447,686.823853 
z"/>
<path fill="#7D7AF5" opacity="1.000000" stroke="none" 
	d="
M692.847778,342.409027 
	C635.291565,342.820770 577.630798,342.857483 519.507202,342.844055 
	C520.386841,342.198029 521.728455,341.083099 523.071899,341.080933 
	C578.427734,340.991516 633.783691,340.995483 689.139587,341.043091 
	C690.341064,341.044098 691.541931,341.689270 692.847778,342.409027 
z"/>
<path fill="#7D7AF5" opacity="1.000000" stroke="none" 
	d="
M478.044617,341.052734 
	C476.606049,341.582703 474.659821,342.549561 472.710602,342.555634 
	C428.548492,342.692200 384.385864,342.677185 340.223816,342.830902 
	C334.429321,342.851074 328.637421,343.634460 322.424194,344.080688 
	C326.260010,343.064789 330.512207,341.152893 334.772400,341.135040 
	C382.359375,340.935455 429.947632,341.028107 478.044617,341.052734 
z"/>
<path fill="#6C67F6" opacity="1.000000" stroke="none" 
	d="
M716.820129,561.918030 
	C716.725098,548.453308 716.522095,534.988220 716.556458,521.523865 
	C716.640564,488.569489 716.853699,455.615448 716.975586,422.661163 
	C717.035278,406.515503 717.103149,390.368652 716.963135,374.224121 
	C716.918701,369.099945 716.214478,363.981506 715.693604,358.439636 
	C716.380493,360.747528 717.883972,363.474915 717.889160,366.205170 
	C718.013367,431.150055 717.976562,496.095215 717.771484,561.509216 
	C717.321899,561.966858 717.070679,561.946838 716.820129,561.918030 
z"/>
<path fill="#7D7AF5" opacity="1.000000" stroke="none" 
	d="
M310.604980,356.214844 
	C310.390533,368.436859 309.451263,380.837830 309.402863,393.242340 
	C309.306885,417.836823 309.702454,442.433258 309.841248,467.491089 
	C309.194244,466.610535 308.086853,465.269348 308.082672,463.924774 
	C307.979919,430.887634 307.938690,397.849884 308.087189,364.813141 
	C308.099854,362.003998 309.517822,359.201141 310.604980,356.214844 
z"/>
<path fill="#7975F7" opacity="1.000000" stroke="none" 
	d="
M716.639038,562.363159 
	C717.070679,561.946838 717.321899,561.966858 717.763489,561.976196 
	C717.967041,592.096558 717.989624,622.218811 717.968811,652.341125 
	C717.967773,653.800110 717.585144,655.258850 717.093628,657.078613 
	C716.610107,640.512695 716.316406,623.586304 716.245789,606.658936 
	C716.184753,592.042603 716.377380,577.425232 716.639038,562.363159 
z"/>
<path fill="#7D7AF5" opacity="1.000000" stroke="none" 
	d="
M309.417847,470.150513 
	C309.847229,489.043884 309.901428,508.042084 309.911499,527.504761 
	C309.249542,526.814880 308.101257,525.664062 308.093567,524.505676 
	C307.979187,507.287781 308.000916,490.068787 308.060364,472.850311 
	C308.063324,471.984222 308.700684,471.120270 309.417847,470.150513 
z"/>
<path fill="#6C67F6" opacity="1.000000" stroke="none" 
	d="
M309.834076,557.025269 
	C309.930389,587.391418 309.998230,617.757690 310.151550,648.123596 
	C310.176666,653.093628 310.578644,658.061890 310.773987,663.469482 
	C310.171143,662.213501 309.108215,660.520386 309.103058,658.824036 
	C309.000610,625.200684 309.020630,591.576904 309.221558,557.484009 
	C309.427368,557.014832 309.834076,557.025269 309.834076,557.025269 
z"/>
<path fill="#7D7AF5" opacity="1.000000" stroke="none" 
	d="
M514.853699,342.423859 
	C510.231201,342.834137 505.505829,342.868652 500.411865,342.853363 
	C501.343994,342.205078 502.653534,341.085724 503.943848,341.107513 
	C507.550415,341.168427 511.149078,341.701447 514.853699,342.423859 
z"/>
<path fill="#7D7AF5" opacity="1.000000" stroke="none" 
	d="
M496.868317,342.440918 
	C494.938232,342.828918 492.920807,342.862946 490.473816,342.845703 
	C492.006927,339.865082 494.347961,340.538177 496.868317,342.440918 
z"/>
<path fill="#7D7AF5" opacity="1.000000" stroke="none" 
	d="
M309.906006,556.570984 
	C309.834076,557.025269 309.427368,557.014832 309.224182,557.016541 
	C309.130737,553.561218 309.240448,550.104126 309.624603,546.353333 
	C309.925323,549.411926 309.951630,552.764343 309.906006,556.570984 
z"/>
<path fill="#7D7AF5" opacity="1.000000" stroke="none" 
	d="
M321.743225,344.060852 
	C321.544983,344.413116 321.002441,344.781189 320.110504,345.191772 
	C320.307098,344.848389 320.853027,344.462524 321.743225,344.060852 
z"/>
<path fill="#8F8DF3" opacity="1.000000" stroke="none" 
	d="
M549.040100,571.231506 
	C548.599976,571.763733 548.159790,572.295898 547.194519,573.041260 
	C546.460876,573.591125 546.252319,573.927856 546.043762,574.264526 
	C543.963440,576.425232 541.883057,578.585938 539.237183,580.998474 
	C538.460022,581.576477 538.248291,581.902710 538.036560,582.228882 
	C536.296814,584.071228 534.557129,585.913635 532.262573,587.986938 
	C531.477234,588.508850 531.246765,588.799744 531.016296,589.090698 
	C531.016296,589.090698 531.016846,589.013733 530.811157,589.121582 
	C530.410889,589.517090 530.216309,589.804749 530.021667,590.092468 
	C530.021667,590.092468 530.017639,590.017761 529.811340,590.123962 
	C529.410706,590.517517 529.216370,590.804932 529.022034,591.092285 
	C529.022034,591.092285 529.017944,591.018066 528.811523,591.123901 
	C528.411011,591.517029 528.216980,591.804260 528.022949,592.091553 
	C528.022949,592.091553 528.017761,592.017822 527.811157,592.123901 
	C527.410767,592.517090 527.217041,592.804260 527.023315,593.091431 
	C527.023315,593.091431 527.017395,593.017883 526.810425,593.123901 
	C526.409912,593.517639 526.216370,593.805237 526.022827,594.092834 
	C526.022827,594.092834 526.013977,594.017944 525.792664,594.149658 
	C525.397888,594.621338 525.224365,594.961426 525.050842,595.301453 
	C524.622498,595.817505 524.194153,596.333557 523.250854,597.031006 
	C522.496155,597.504944 522.256470,597.797424 522.016785,598.089905 
	C522.016785,598.089905 522.017273,598.014587 521.810547,598.121704 
	C521.410217,598.516602 521.216553,598.804443 521.022888,599.092224 
	C521.022888,599.092224 521.017883,599.018250 520.810791,599.123535 
	C520.410156,599.516541 520.216675,599.804321 520.023193,600.092102 
	C520.023132,600.092102 520.018005,600.018250 519.810913,600.123291 
	C519.410645,600.515747 519.217346,600.803162 519.024048,601.090576 
	C519.024048,601.090576 519.013672,601.017944 518.790771,601.151245 
	C518.396240,601.627075 518.224487,601.969727 518.052734,602.312317 
	C517.305603,603.144897 516.558472,603.977478 515.275269,605.011292 
	C514.498474,605.504700 514.257812,605.796814 514.017090,606.088989 
	C514.017090,606.088989 514.017578,606.014771 513.810791,606.122314 
	C513.410339,606.517273 513.216614,606.804688 513.022888,607.092102 
	C513.022888,607.092102 513.014465,607.018372 512.795410,607.146240 
	C512.399475,607.605652 512.222534,607.937256 512.045532,608.268799 
	C512.023376,608.550842 511.894012,608.769470 511.178589,609.088745 
	C510.480713,609.590698 510.261688,609.928528 510.042633,610.266296 
	C507.930389,612.427124 505.818146,614.587891 503.165466,616.887085 
	C502.436951,617.363770 502.248840,617.702087 502.060730,618.040344 
	C491.840240,627.679688 473.372742,627.995667 463.105988,618.637207 
	C460.062592,615.863037 457.193359,612.897766 453.987427,609.406006 
	C453.347961,608.546875 452.965363,608.301819 452.582764,608.056824 
	C442.145691,597.660706 431.708618,587.264526 421.029480,576.311157 
	C420.497742,575.511780 420.208038,575.269775 419.918335,575.027771 
	C419.918335,575.027771 419.985901,575.009155 419.815552,574.772217 
	C419.255676,574.374695 418.866119,574.214111 418.476562,574.053528 
	C412.189240,568.379761 405.708221,562.903748 399.663391,556.982422 
	C392.054016,549.528442 384.724548,541.782715 377.412903,534.032166 
	C367.142700,523.145386 367.468689,504.847382 378.039703,494.205780 
	C380.972687,491.253235 384.241486,488.616913 387.024628,485.535980 
	C396.426178,475.128265 417.275970,475.364655 427.387787,486.472443 
	C441.611053,502.096527 457.020874,516.641541 471.948608,531.622803 
	C479.319580,539.020264 484.607910,538.921326 492.321075,531.150513 
	C530.686768,492.497742 569.050537,453.843048 607.348938,415.123627 
	C613.676575,408.726471 620.906555,405.049072 630.085815,405.968628 
	C630.913635,406.051544 631.754883,406.061188 632.568359,406.217285 
	C650.725098,409.701080 666.803345,432.530548 662.685669,450.330322 
	C661.418823,455.806793 657.632263,461.160614 653.778687,465.482025 
	C645.921387,474.293396 637.234497,482.365021 628.326294,490.977356 
	C627.517090,491.503540 627.270935,491.793732 627.024719,492.083923 
	C627.024719,492.083923 627.019531,492.011993 626.812988,492.123657 
	C626.415161,492.519562 626.223877,492.803802 626.032532,493.088043 
	C626.032532,493.088043 626.016602,493.016663 625.811768,493.125977 
	C625.416138,493.518524 625.225281,493.801727 625.034424,494.084961 
	C625.034424,494.084991 625.008362,494.018951 624.776672,494.175781 
	C624.384521,494.706757 624.224060,495.080933 624.063599,495.455078 
	C618.220825,501.586121 612.433533,507.771362 606.518494,513.831909 
	C601.284790,519.194336 595.908813,524.417969 590.200684,529.690796 
	C589.564026,529.839722 589.322449,530.000732 589.080811,530.161804 
	C589.080811,530.161804 589.015320,530.102173 588.809143,530.170776 
	C588.415161,530.518982 588.227356,530.798523 588.039551,531.078125 
	C588.039551,531.078125 588.014587,531.009888 587.781494,531.174805 
	C587.370850,531.917419 587.193298,532.495056 587.015747,533.072693 
	C575.281616,544.961487 563.547485,556.850342 551.254883,568.976562 
	C550.470398,569.506226 550.244385,569.798523 550.018311,570.090820 
	C550.018311,570.090820 550.014038,570.015198 549.797241,570.138550 
	C549.400330,570.585144 549.220215,570.908325 549.040100,571.231506 
z"/>
<path fill="#7975F7" opacity="1.000000" stroke="none" 
	d="
M502.285645,617.928894 
	C502.248840,617.702087 502.436951,617.363770 502.871033,617.026245 
	C502.914886,617.290466 502.712708,617.553955 502.285645,617.928894 
z"/>
<path fill="#7975F7" opacity="1.000000" stroke="none" 
	d="
M587.283508,532.898682 
	C587.193298,532.495056 587.370850,531.917419 587.816650,531.184082 
	C587.906982,531.593750 587.729126,532.159180 587.283508,532.898682 
z"/>
<path fill="#7975F7" opacity="1.000000" stroke="none" 
	d="
M526.280701,594.007019 
	C526.216370,593.805237 526.409912,593.517639 526.847290,593.126099 
	C526.906860,593.321838 526.722717,593.621521 526.280701,594.007019 
z"/>
<path fill="#7975F7" opacity="1.000000" stroke="none" 
	d="
M529.278564,591.004883 
	C529.216370,590.804932 529.410706,590.517517 529.848755,590.125366 
	C529.906616,590.319580 529.720825,590.618591 529.278564,591.004883 
z"/>
<path fill="#7975F7" opacity="1.000000" stroke="none" 
	d="
M525.290039,595.143921 
	C525.224365,594.961426 525.397888,594.621338 525.830322,594.148315 
	C525.902649,594.339050 525.715942,594.662720 525.290039,595.143921 
z"/>
<path fill="#7975F7" opacity="1.000000" stroke="none" 
	d="
M522.287842,597.999634 
	C522.256470,597.797424 522.496155,597.504944 523.015747,597.129761 
	C523.050110,597.334595 522.804565,597.622009 522.287842,597.999634 
z"/>
<path fill="#7975F7" opacity="1.000000" stroke="none" 
	d="
M521.280090,599.006287 
	C521.216553,598.804443 521.410217,598.516602 521.848083,598.125122 
	C521.907288,598.321045 521.722290,598.620667 521.280090,599.006287 
z"/>
<path fill="#7975F7" opacity="1.000000" stroke="none" 
	d="
M520.280884,600.006958 
	C520.216675,599.804321 520.410156,599.516541 520.847778,599.125244 
	C520.907532,599.321716 520.723022,599.621765 520.280884,600.006958 
z"/>
<path fill="#7975F7" opacity="1.000000" stroke="none" 
	d="
M519.283569,601.009277 
	C519.217346,600.803162 519.410645,600.515747 519.847900,600.125183 
	C519.908997,600.324036 519.726013,600.625977 519.283569,601.009277 
z"/>
<path fill="#7975F7" opacity="1.000000" stroke="none" 
	d="
M518.291260,602.151367 
	C518.224487,601.969727 518.396240,601.627075 518.827454,601.150391 
	C518.901245,601.341003 518.715515,601.665771 518.291260,602.151367 
z"/>
<path fill="#7975F7" opacity="1.000000" stroke="none" 
	d="
M514.289429,606.001160 
	C514.257812,605.796814 514.498474,605.504700 515.019531,605.130127 
	C515.053833,605.336304 514.807861,605.624817 514.289429,606.001160 
z"/>
<path fill="#7975F7" opacity="1.000000" stroke="none" 
	d="
M513.281494,607.008057 
	C513.216614,606.804688 513.410339,606.517273 513.847778,606.125854 
	C513.907654,606.322510 513.723877,606.623230 513.281494,607.008057 
z"/>
<path fill="#7975F7" opacity="1.000000" stroke="none" 
	d="
M512.283936,608.116455 
	C512.222534,607.937256 512.399475,607.605652 512.832520,607.145142 
	C512.899902,607.332214 512.711121,607.648193 512.283936,608.116455 
z"/>
<path fill="#7D7AF5" opacity="1.000000" stroke="none" 
	d="
M452.771179,608.327026 
	C452.965363,608.301819 453.347961,608.546875 453.840393,609.127075 
	C453.619965,609.173950 453.289764,608.885620 452.771179,608.327026 
z"/>
<path fill="#7975F7" opacity="1.000000" stroke="none" 
	d="
M510.293396,610.110596 
	C510.261688,609.928528 510.480713,609.590698 510.991425,609.147461 
	C511.036774,609.346252 510.790466,609.650574 510.293396,610.110596 
z"/>
<path fill="#7975F7" opacity="1.000000" stroke="none" 
	d="
M527.282715,593.008789 
	C527.217041,592.804260 527.410767,592.517090 527.848022,592.125916 
	C527.908386,592.323303 527.725220,592.624756 527.282715,593.008789 
z"/>
<path fill="#7975F7" opacity="1.000000" stroke="none" 
	d="
M528.281128,592.007385 
	C528.216980,591.804260 528.411011,591.517029 528.848633,591.125366 
	C528.907959,591.321716 528.723633,591.622498 528.281128,592.007385 
z"/>
<path fill="#7D7AF5" opacity="1.000000" stroke="none" 
	d="
M626.301392,493.024109 
	C626.223877,492.803802 626.415161,492.519562 626.847778,492.133240 
	C626.916138,492.340851 626.743225,492.650513 626.301392,493.024109 
z"/>
<path fill="#7975F7" opacity="1.000000" stroke="none" 
	d="
M530.277283,590.003784 
	C530.216309,589.804749 530.410889,589.517090 530.849609,589.124756 
	C530.906677,589.318359 530.719788,589.616699 530.277283,590.003784 
z"/>
<path fill="#7975F7" opacity="1.000000" stroke="none" 
	d="
M531.279297,588.994019 
	C531.246765,588.799744 531.477234,588.508850 531.978821,588.128479 
	C532.014038,588.325073 531.778137,588.611206 531.279297,588.994019 
z"/>
<path fill="#7975F7" opacity="1.000000" stroke="none" 
	d="
M538.279907,582.077698 
	C538.248291,581.902710 538.460022,581.576477 538.949951,581.141846 
	C538.993164,581.331055 538.758179,581.628784 538.279907,582.077698 
z"/>
<path fill="#7D7AF5" opacity="1.000000" stroke="none" 
	d="
M419.978577,575.312439 
	C420.208038,575.269775 420.497742,575.511780 420.864990,576.035034 
	C420.641327,576.076477 420.340088,575.836792 419.978577,575.312439 
z"/>
<path fill="#7D7AF5" opacity="1.000000" stroke="none" 
	d="
M418.667480,574.308228 
	C418.866119,574.214111 419.255676,574.374695 419.812073,574.807068 
	C419.605377,574.906860 419.231873,574.734924 418.667480,574.308228 
z"/>
<path fill="#7975F7" opacity="1.000000" stroke="none" 
	d="
M546.288452,574.107544 
	C546.252319,573.927856 546.460876,573.591125 546.953613,573.145630 
	C547.002991,573.341370 546.768066,573.645996 546.288452,574.107544 
z"/>
<path fill="#7975F7" opacity="1.000000" stroke="none" 
	d="
M549.279297,571.088745 
	C549.220215,570.908325 549.400330,570.585144 549.835083,570.139282 
	C549.899292,570.326416 549.708923,570.636230 549.279297,571.088745 
z"/>
<path fill="#7975F7" opacity="1.000000" stroke="none" 
	d="
M550.282471,569.998108 
	C550.244385,569.798523 550.470398,569.506226 550.967041,569.126465 
	C551.007324,569.327820 550.776917,569.616577 550.282471,569.998108 
z"/>
<path fill="#7D7AF5" opacity="1.000000" stroke="none" 
	d="
M627.305298,492.011047 
	C627.270935,491.793732 627.517090,491.503540 628.046997,491.135925 
	C628.082520,491.351715 627.834229,491.644928 627.305298,492.011047 
z"/>
<path fill="#7975F7" opacity="1.000000" stroke="none" 
	d="
M588.356201,531.099976 
	C588.227356,530.798523 588.415161,530.518982 588.840271,530.139221 
	C588.942688,530.399963 588.807800,530.760864 588.356201,531.099976 
z"/>
<path fill="#7975F7" opacity="1.000000" stroke="none" 
	d="
M589.330566,530.237061 
	C589.322449,530.000732 589.564026,529.839722 589.907471,529.847168 
	C589.866333,530.114624 589.723267,530.213501 589.330566,530.237061 
z"/>
<path fill="#7D7AF5" opacity="1.000000" stroke="none" 
	d="
M624.310181,495.271606 
	C624.224060,495.080933 624.384521,494.706757 624.812134,494.177979 
	C624.905090,494.378326 624.730957,494.733246 624.310181,495.271606 
z"/>
<path fill="#7D7AF5" opacity="1.000000" stroke="none" 
	d="
M625.306641,494.029327 
	C625.225281,493.801727 625.416138,493.518524 625.847595,493.133484 
	C625.918457,493.345703 625.748657,493.659698 625.306641,494.029327 
z"/>
</svg>